<?xml version="1.0" encoding="UTF-8"?>
<svg version="1.1" xmlns="http://www.w3.org/2000/svg" width="623" height="623">
<path d="M0 0 C205.59 0 411.18 0 623 0 C623 205.59 623 411.18 623 623 C417.41 623 211.82 623 0 623 C0 417.41 0 211.82 0 0 Z " fill="#0F1729" transform="translate(0,0)"/>
<path d="M0 0 C1.17046875 0.03609375 2.3409375 0.0721875 3.546875 0.109375 C4.43890625 0.15578125 5.3309375 0.2021875 6.25 0.25 C6.25 0.91 6.25 1.57 6.25 2.25 C5.610625 2.724375 4.97125 3.19875 4.3125 3.6875 C1.96627037 5.1591365 1.96627037 5.1591365 1.25 8.25 C0.59 8.91 -0.07 9.57 -0.75 10.25 C-0.75 11.24 -0.75 12.23 -0.75 13.25 C-0.14671875 13.51425781 0.4565625 13.77851563 1.078125 14.05078125 C3.3542287 15.30755074 4.41818433 16.40440162 6 18.4375 C8.85265716 21.93054958 12.02027603 24.7359412 15.515625 27.57421875 C17.36834776 29.36434953 18.11005129 30.96563219 19.25 33.25 C20.9499352 34.9390775 20.9499352 34.9390775 22.9375 36.5 C26.59165547 39.57613451 29.66610259 42.87421904 32.70703125 46.55078125 C34.33567983 48.48268554 34.33567983 48.48268554 37.25 50.25 C37.92304363 51.58012575 38.58946118 52.9136203 39.25 54.25 C40.72043934 55.71149066 40.72043934 55.71149066 42.4375 57 C47.57353637 61.24234451 52.69007767 65.62742065 54.25 72.25 C55.56647119 72.94937532 56.90022151 73.61729133 58.25 74.25 C58.58 75.24 58.91 76.23 59.25 77.25 C59.91 77.58 60.57 77.91 61.25 78.25 C61.91 78.58 62.57 78.91 63.25 79.25 C63.58 80.24 63.91 81.23 64.25 82.25 C64.91 82.58 65.57 82.91 66.25 83.25 C66.91 83.58 67.57 83.91 68.25 84.25 C68.58 85.24 68.91 86.23 69.25 87.25 C69.91 87.58 70.57 87.91 71.25 88.25 C71.91 88.58 72.57 88.91 73.25 89.25 C73.58 90.24 73.91 91.23 74.25 92.25 C75.94153744 93.96452342 75.94153744 93.96452342 78 95.625 C81.23884437 98.37311037 84.28435497 101.2042024 87.25 104.25 C88.075 105.075 88.9 105.9 89.75 106.75 C97.25 114.25 97.25 114.25 99.9375 117 C102.03613313 119.26940142 102.03613313 119.26940142 104.25 120.25 C104.25 120.91 104.25 121.57 104.25 122.25 C106.58214148 123.45628008 108.74642139 124.4154738 111.25 125.25 C112.24 126.735 112.24 126.735 113.25 128.25 C115.30003955 129.44232613 115.30003955 129.44232613 117.25 130.25 C117.25 130.91 117.25 131.57 117.25 132.25 C120.22 133.24 123.19 134.23 126.25 135.25 C126.25 135.91 126.25 136.57 126.25 137.25 C129.55 138.24 132.85 139.23 136.25 140.25 C136.25 140.91 136.25 141.57 136.25 142.25 C141.2 143.24 146.15 144.23 151.25 145.25 C151.25 145.91 151.25 146.57 151.25 147.25 C158.24600901 147.96325905 165.24564408 148.6241355 172.25 149.25 C172.25 150.24 172.25 151.23 172.25 152.25 C165.40635278 153.85768489 158.96108659 154.5731964 151.9375 154.5 C151.0297583 154.49613281 150.1220166 154.49226562 149.18676758 154.48828125 C142.05854882 154.39712918 135.24113071 153.70270249 128.25 152.25 C128.25 151.59 128.25 150.93 128.25 150.25 C124.29 149.26 120.33 148.27 116.25 147.25 C116.25 146.59 116.25 145.93 116.25 145.25 C115.156875 145.12625 114.06375 145.0025 112.9375 144.875 C109.25 144.25 109.25 144.25 106.25 142.25 C106.25 141.59 106.25 140.93 106.25 140.25 C105.5075 140.12625 104.765 140.0025 104 139.875 C101.42069951 139.28879534 99.5017838 138.61715445 97.25 137.25 C96.92 136.59 96.59 135.93 96.25 135.25 C95.13625 134.79625 94.0225 134.3425 92.875 133.875 C89.25920785 132.25412766 88.35093425 131.40140137 86.25 128.25 C84.765 127.755 84.765 127.755 83.25 127.25 C81.70703125 125.6484375 81.70703125 125.6484375 80.0625 123.625 C77.61891547 120.73385367 75.14433183 118.18910682 72.25 115.75 C68.78153313 112.81617157 65.90489512 109.63054502 62.98046875 106.1640625 C61.26491811 104.26650084 59.4783607 102.68002762 57.5 101.0625 C54.64297382 98.71746303 53.15608659 96.42681098 51.25 93.25 C50.19483063 92.28091024 49.10739798 91.34644834 48 90.4375 C42.87764475 86.21973089 37.80316463 81.84388983 36.25 75.25 C34.93352881 74.55062468 33.59977849 73.88270867 32.25 73.25 C31.92 72.26 31.59 71.27 31.25 70.25 C30.26 69.755 30.26 69.755 29.25 69.25 C27.25 68.25 27.25 68.25 26.25 65.25 C25.26 64.755 25.26 64.755 24.25 64.25 C22.25 63.25 22.25 63.25 21.25 60.25 C20.26 59.755 20.26 59.755 19.25 59.25 C17.25 58.25 17.25 58.25 16.25 55.25 C14.55846256 53.53547658 14.55846256 53.53547658 12.5 51.875 C9.26115563 49.12688963 6.21564503 46.2957976 3.25 43.25 C2.363125 42.404375 1.47625 41.55875 0.5625 40.6875 C-1.75 38.25 -1.75 38.25 -2.6640625 36.30078125 C-3.9356681 33.89936779 -5.33179528 32.70442111 -7.4375 31 C-10.3746556 28.49319687 -13.16699876 25.94049328 -15.8125 23.125 C-16.40160156 22.50367188 -16.99070312 21.88234375 -17.59765625 21.2421875 C-18.75 19.25 -18.75 19.25 -18.48828125 16.64453125 C-17.21115725 12.50232484 -16.44218681 10.71145787 -12.75 8.25 C-12.440625 7.63125 -12.13125 7.0125 -11.8125 6.375 C-9.00412 0.75824001 -6.12715919 -0.24508637 0 0 Z " fill="#F9F9FA" transform="translate(342.75,335.75)"/>
<path d="M0 0 C1.65 0 3.3 0 5 0 C4.34 3.3 3.68 6.6 3 10 C2.34 10 1.68 10 1 10 C1 19.57 1 29.14 1 39 C1.66 39 2.32 39 3 39 C3.50512244 40.60256108 4.00391627 42.20711792 4.5 43.8125 C4.7784375 44.70582031 5.056875 45.59914063 5.34375 46.51953125 C6 49 6 49 6 52 C6.99 52.33 7.98 52.66 9 53 C9.66666667 54.33333333 10.33333333 55.66666667 11 57 C12.32392972 58.01241685 13.65599167 59.01439389 15 60 C15 60.66 15 61.32 15 62 C15.86625 62.185625 15.86625 62.185625 16.75 62.375 C19.02335767 63.00648824 20.9253529 63.88858191 23 65 C23 65.66 23 66.32 23 67 C26.3 67.99 29.6 68.98 33 70 C33 70.66 33 71.32 33 72 C43.56 72 54.12 72 65 72 C65 71.34 65 70.68 65 70 C66.60256108 69.49487756 68.20711792 68.99608373 69.8125 68.5 C70.70582031 68.2215625 71.59914063 67.943125 72.51953125 67.65625 C75 67 75 67 78 67 C78.495 65.515 78.495 65.515 79 64 C81 63.33333333 83 62.66666667 85 62 C85.33 61.01 85.66 60.02 86 59 C86.66 58.67 87.32 58.34 88 58 C88.495 57.154375 88.99 56.30875 89.5 55.4375 C89.995 54.633125 90.49 53.82875 91 53 C91.66 53 92.32 53 93 53 C93.144375 52.236875 93.28875 51.47375 93.4375 50.6875 C94 48 94 48 95 45 C95.10903878 42.25442191 95.16404186 39.53500364 95.16796875 36.7890625 C95.17129715 35.98391205 95.17462555 35.1787616 95.17805481 34.34921265 C95.18311568 32.6462257 95.18546339 30.94322884 95.18530273 29.24023438 C95.18748592 26.64175969 95.20564116 24.0437119 95.22460938 21.4453125 C95.22754417 19.78906395 95.22952839 18.13281338 95.23046875 16.4765625 C95.24124702 15.31539413 95.24124702 15.31539413 95.25224304 14.13076782 C95.23456006 9.93101523 94.74025313 6.8098482 93 3 C93 2.01 93 1.02 93 0 C99.93 0 106.86 0 114 0 C116.25 9 116.25 9 116 13 C116.66 13 117.32 13 118 13 C118 21.25 118 29.5 118 38 C117.34 38 116.68 38 116 38 C114.86978122 44.32787832 114.85529206 50.5365708 114.8671875 56.953125 C114.86575241 58.65888702 114.86575241 58.65888702 114.86428833 60.39910889 C114.86361005 62.79276587 114.86543969 65.18642472 114.86962891 67.58007812 C114.87500197 71.25134372 114.86966179 74.92248809 114.86328125 78.59375 C114.86394171 80.92187527 114.86522219 83.25000047 114.8671875 85.578125 C114.86415115 87.22811493 114.86415115 87.22811493 114.86105347 88.91143799 C114.86420563 89.92969666 114.86735779 90.94795532 114.87060547 91.99707031 C114.87140106 92.89306946 114.87219666 93.7890686 114.87301636 94.71221924 C114.9084466 97.1639496 114.9084466 97.1639496 116 100 C116.66 100 117.32 100 118 100 C118.99 101.485 118.99 101.485 120 103 C122.55183404 104.20450304 122.55183404 104.20450304 125 105 C125 105.66 125 106.32 125 107 C127.97 107 130.94 107 134 107 C134 107.66 134 108.32 134 109 C114.86 109 95.72 109 76 109 C76 108.34 76 107.68 76 107 C78.64 107 81.28 107 84 107 C84 106.34 84 105.68 84 105 C85.36125 104.4121875 85.36125 104.4121875 86.75 103.8125 C90.55000718 101.69326523 93.21989399 99.4258403 94.58569336 95.17871094 C95.07072665 92.62807034 95.21549883 90.17288717 95.31640625 87.578125 C95.35830078 86.55332031 95.40019531 85.52851563 95.44335938 84.47265625 C95.48267578 83.40917969 95.52199219 82.34570312 95.5625 81.25 C95.62727539 79.63158203 95.62727539 79.63158203 95.69335938 77.98046875 C95.79928989 75.32043572 95.90136421 72.66031188 96 70 C95.34 70 94.68 70 94 70 C93.505 71.485 93.505 71.485 93 73 C90.39757586 74.64820195 89.13751221 75 86 75 C86 75.66 86 76.32 86 77 C84.39743892 77.50512244 82.79288208 78.00391627 81.1875 78.5 C80.29417969 78.7784375 79.40085937 79.056875 78.48046875 79.34375 C76 80 76 80 73 80 C73 80.66 73 81.32 73 82 C66.41953573 82.84433656 60.00591962 83.15366392 53.375 83.125 C52.47265625 83.12886719 51.5703125 83.13273437 50.640625 83.13671875 C45.65247521 83.12944739 40.91658692 82.84861637 36 82 C36 81.34 36 80.68 36 80 C35.30132812 79.86722656 34.60265625 79.73445313 33.8828125 79.59765625 C32.97273438 79.42105469 32.06265625 79.24445313 31.125 79.0625 C30.22007812 78.88847656 29.31515625 78.71445312 28.3828125 78.53515625 C26 78 26 78 24 77 C24 76.34 24 75.68 24 75 C22.88625 74.814375 22.88625 74.814375 21.75 74.625 C19.19858515 74.04513299 17.2732427 73.26291261 15 72 C15 71.34 15 70.68 15 70 C14.278125 69.773125 13.55625 69.54625 12.8125 69.3125 C8.00536666 67.06917111 5.2007102 63.73999121 3 59 C2.34 58.67 1.68 58.34 1 58 C0.1484375 56.2578125 0.1484375 56.2578125 -0.625 54.125 C-0.88539063 53.42632812 -1.14578125 52.72765625 -1.4140625 52.0078125 C-2 50 -2 50 -2 47 C-2.66 47 -3.32 47 -4 47 C-5.69847043 40.36787738 -6.30967714 34.33303204 -6.25 27.5 C-6.25773438 26.61441406 -6.26546875 25.72882813 -6.2734375 24.81640625 C-6.25613854 18.92611186 -5.46147564 13.7067144 -4 8 C-3.34 8 -2.68 8 -2 8 C-1.855625 7.236875 -1.71125 6.47375 -1.5625 5.6875 C-1 3 -1 3 0 0 Z " fill="#F8F8F9" transform="translate(201,336)"/>
<path d="M0 0 C0.89074219 -0.00128906 1.78148437 -0.00257813 2.69921875 -0.00390625 C3.61832031 -0.00003906 4.53742188 0.00382813 5.484375 0.0078125 C6.83982422 0.00201172 6.83982422 0.00201172 8.22265625 -0.00390625 C13.97084437 0.00436452 19.53286768 0.39976156 25.234375 1.1328125 C25.234375 1.7928125 25.234375 2.4528125 25.234375 3.1328125 C30.184375 3.1328125 35.134375 3.1328125 40.234375 3.1328125 C40.234375 13.6928125 40.234375 24.2528125 40.234375 35.1328125 C39.244375 35.1328125 38.254375 35.1328125 37.234375 35.1328125 C36.244375 30.5128125 35.254375 25.8928125 34.234375 21.1328125 C33.574375 21.1328125 32.914375 21.1328125 32.234375 21.1328125 C31.80125 20.3696875 31.368125 19.6065625 30.921875 18.8203125 C29.02687671 15.80235226 27.28063191 14.86176912 24.234375 13.1328125 C24.234375 12.4728125 24.234375 11.8128125 24.234375 11.1328125 C12.63197337 8.79142695 1.74147371 8.01224336 -9.765625 11.1328125 C-9.765625 11.7928125 -9.765625 12.4528125 -9.765625 13.1328125 C-12.265625 14.6328125 -12.265625 14.6328125 -14.765625 16.1328125 C-18.6015291 19.57725945 -18.6015291 19.57725945 -20.765625 24.1328125 C-21.425625 24.1328125 -22.085625 24.1328125 -22.765625 24.1328125 C-24.00360361 28.93734855 -23.91336783 33.64648924 -23.890625 38.5703125 C-23.89449219 39.40369141 -23.89835938 40.23707031 -23.90234375 41.09570312 C-23.89529373 45.55483837 -23.66479291 49.74401675 -22.765625 54.1328125 C-21.280625 54.6278125 -21.280625 54.6278125 -19.765625 55.1328125 C-19.0819205 56.45748996 -18.41598314 57.79144883 -17.765625 59.1328125 C-16.775625 59.7928125 -15.785625 60.4528125 -14.765625 61.1328125 C-14.765625 61.7928125 -14.765625 62.4528125 -14.765625 63.1328125 C-13.96125 63.4009375 -13.156875 63.6690625 -12.328125 63.9453125 C-11.0596875 64.533125 -11.0596875 64.533125 -9.765625 65.1328125 C-9.435625 66.1228125 -9.105625 67.1128125 -8.765625 68.1328125 C-8.12625 68.2771875 -7.486875 68.4215625 -6.828125 68.5703125 C-5.8071875 68.84875 -5.8071875 68.84875 -4.765625 69.1328125 C-4.09895833 70.46614583 -3.43229167 71.79947917 -2.765625 73.1328125 C-0.82944075 73.80437866 -0.82944075 73.80437866 1.234375 74.1328125 C2.224375 74.7928125 3.214375 75.4528125 4.234375 76.1328125 C4.234375 76.7928125 4.234375 77.4528125 4.234375 78.1328125 C5.224375 78.4421875 5.224375 78.4421875 6.234375 78.7578125 C10.30617686 80.62405502 13.92234498 83.10842777 17.234375 86.1328125 C17.234375 86.7928125 17.234375 87.4528125 17.234375 88.1328125 C18.018125 88.4421875 18.801875 88.7515625 19.609375 89.0703125 C22.234375 90.1328125 22.234375 90.1328125 24.234375 91.1328125 C24.234375 91.7928125 24.234375 92.4528125 24.234375 93.1328125 C14.334375 93.1328125 4.434375 93.1328125 -5.765625 93.1328125 C-5.765625 92.4728125 -5.765625 91.8128125 -5.765625 91.1328125 C-6.4875 90.8853125 -7.209375 90.6378125 -7.953125 90.3828125 C-11.90539697 88.62624718 -14.76869488 86.16089669 -17.765625 83.0703125 C-19.92351336 80.97985815 -22.1932066 79.66235857 -24.765625 78.1328125 C-25.095625 77.4728125 -25.425625 76.8128125 -25.765625 76.1328125 C-26.755625 75.66875 -26.755625 75.66875 -27.765625 75.1953125 C-29.765625 74.1328125 -29.765625 74.1328125 -30.765625 71.1328125 C-31.425625 70.6790625 -32.085625 70.2253125 -32.765625 69.7578125 C-35.28758376 67.708721 -35.42425214 66.29051143 -35.765625 63.1328125 C-36.425625 63.1328125 -37.085625 63.1328125 -37.765625 63.1328125 C-39.6327746 56.80524996 -40.07169706 51.08693474 -40.015625 44.5078125 C-40.02335938 43.59257812 -40.03109375 42.67734375 -40.0390625 41.734375 C-40.02480558 36.8014793 -39.70126618 32.7568442 -37.765625 28.1328125 C-37.105625 28.1328125 -36.445625 28.1328125 -35.765625 28.1328125 C-35.58 27.05 -35.58 27.05 -35.390625 25.9453125 C-34.7751319 23.17559356 -33.88118126 20.7357771 -32.765625 18.1328125 C-32.105625 18.1328125 -31.445625 18.1328125 -30.765625 18.1328125 C-30.4975 17.4934375 -30.229375 16.8540625 -29.953125 16.1953125 C-28.765625 14.1328125 -28.765625 14.1328125 -25.765625 13.1328125 C-25.45625 12.4728125 -25.146875 11.8128125 -24.828125 11.1328125 C-24.4775 10.4728125 -24.126875 9.8128125 -23.765625 9.1328125 C-22.43968395 8.77119221 -21.10624043 8.43553211 -19.765625 8.1328125 C-19.435625 7.1428125 -19.105625 6.1528125 -18.765625 5.1328125 C-15.44471498 3.42748033 -13.58069716 3.1328125 -9.765625 3.1328125 C-9.765625 2.4728125 -9.765625 1.8128125 -9.765625 1.1328125 C-6.45531066 0.39368023 -3.3898305 0.00480146 0 0 Z " fill="#F9F9F9" transform="translate(254.765625,204.8671875)"/>
<path d="M0 0 C19.14 0 38.28 0 58 0 C58 0.99 58 1.98 58 3 C57.40832031 3.04898437 56.81664062 3.09796875 56.20703125 3.1484375 C49.41420683 3.79115172 44.60934604 4.56755646 40 10 C38.96285478 13.11143567 38.79968139 15.49468096 38.68359375 18.76171875 C38.62075195 20.43911133 38.62075195 20.43911133 38.55664062 22.15039062 C38.51732422 23.31763672 38.47800781 24.48488281 38.4375 25.6875 C38.37272461 27.45577148 38.37272461 27.45577148 38.30664062 29.25976562 C38.20048906 32.17303626 38.09973371 35.0865026 38 38 C32.06 38 26.12 38 20 38 C19.95101563 36.39769531 19.90203125 34.79539062 19.8515625 33.14453125 C19.7765156 31.03383726 19.7009686 28.92316101 19.625 26.8125 C19.5940625 25.75740234 19.563125 24.70230469 19.53125 23.61523438 C19.49257813 22.59365234 19.45390625 21.57207031 19.4140625 20.51953125 C19.36693115 19.11344604 19.36693115 19.11344604 19.31884766 17.67895508 C18.83033792 13.57450075 17.47736166 10.68421838 15.125 7.3125 C10.50147024 3.89108798 5.62316456 3.60088042 0 3 C0 2.01 0 1.02 0 0 Z " fill="#F7F8F8" transform="translate(277,260)"/>
<path d="M0 0 C18.48 0 36.96 0 56 0 C56 0.99 56 1.98 56 3 C54.97519531 3.13277344 53.95039063 3.26554687 52.89453125 3.40234375 C51.5338426 3.58064088 50.17316615 3.75903123 48.8125 3.9375 C48.13896484 4.02451172 47.46542969 4.11152344 46.77148438 4.20117188 C43.14918834 4.67825477 39.57196415 5.23012035 36 6 C36 6.66 36 7.32 36 8 C35.113125 8.391875 34.22625 8.78375 33.3125 9.1875 C29.34019776 11.36102387 26.0358367 13.7884668 24.07421875 17.9765625 C22.85662582 20.27006482 21.60239176 21.3538421 19.5625 22.9375 C16.60380459 25.34988029 14.87303904 27.64824594 13 31 C12.34 31 11.68 31 11 31 C10.731875 31.639375 10.46375 32.27875 10.1875 32.9375 C9 35 9 35 6 36 C6 36.66 6 37.32 6 38 C1.05 38 -3.9 38 -9 38 C-9 36 -9 36 -7.75 34.625 C-7.1725 34.08875 -6.595 33.5525 -6 33 C-3.02831375 30.21404415 -1.07578842 27.49109871 1 24 C1.66 23.67 2.32 23.34 3 23 C3.495 22.154375 3.99 21.30875 4.5 20.4375 C4.995 19.633125 5.49 18.82875 6 18 C6.66 18 7.32 18 8 18 C9.99475484 13.88581814 10.34358086 10.55244646 10 6 C6.99382731 2.99382731 4.17618402 3.40414684 0 3 C0 2.01 0 1.02 0 0 Z " fill="#F8F8F9" transform="translate(376,260)"/>
<path d="M0 0 C3 2 3 2 3.58203125 4.0234375 C3.65808594 4.79945313 3.73414063 5.57546875 3.8125 6.375 C3.90144531 7.14585937 3.99039062 7.91671875 4.08203125 8.7109375 C3.98698157 11.36327612 3.4830773 12.80678471 2 15 C-1.59264452 16.19754817 -4.22717474 16.33094958 -8 16 C-10.4375 14.5 -10.4375 14.5 -12 12 C-12.79841448 7.98323437 -12.61897146 5.0316191 -10.5 1.5 C-6.77354157 -0.73587506 -4.32088243 -0.41151261 0 0 Z " fill="#EDEDEF" transform="translate(452,309)"/>
<path d="M0 0 C2.475 0.495 2.475 0.495 5 1 C5.33 2.98 5.66 4.96 6 7 C6.66 7 7.32 7 8 7 C8.99 8.485 8.99 8.485 10 10 C10.33 9.01 10.66 8.02 11 7 C11.66 7 12.32 7 13 7 C13.66 4.69 14.32 2.38 15 0 C16.32 0 17.64 0 19 0 C19 5.28 19 10.56 19 16 C17.68 16 16.36 16 15 16 C14.67 14.02 14.34 12.04 14 10 C13.67 11.32 13.34 12.64 13 14 C12.34 14 11.68 14 11 14 C11 14.66 11 15.32 11 16 C10.01 16 9.02 16 8 16 C8 15.34 8 14.68 8 14 C7.34 14 6.68 14 6 14 C5.67 13.01 5.34 12.02 5 11 C4.67 12.65 4.34 14.3 4 16 C2.68 16 1.36 16 0 16 C0 10.72 0 5.44 0 0 Z " fill="#DBDCDF" transform="translate(211,309)"/>
<path d="M0 0 C0.66 0 1.32 0 2 0 C2.33 1.98 2.66 3.96 3 6 C3.99 6 4.98 6 6 6 C6.66 4.02 7.32 2.04 8 0 C9.65 0 11.3 0 13 0 C13 1.98 13 3.96 13 6 C13.99 6 14.98 6 16 6 C16.66 4.02 17.32 2.04 18 0 C18.99 0 19.98 0 21 0 C20.67 2.97 20.34 5.94 20 9 C19.34 9 18.68 9 18 9 C17.67 11.31 17.34 13.62 17 16 C15.35 15.67 13.7 15.34 12 15 C11.34 13.02 10.68 11.04 10 9 C9.34 9 8.68 9 8 9 C7.67 11.31 7.34 13.62 7 16 C5.68 16 4.36 16 3 16 C2.49411853 14.08487728 1.99551609 12.16783078 1.5 10.25 C1.2215625 9.18265625 0.943125 8.1153125 0.65625 7.015625 C0 4 0 4 0 0 Z " fill="#D2D4D7" transform="translate(104,309)"/>
<path d="M0 0 C0.99 0 1.98 0 3 0 C3.33 2.97 3.66 5.94 4 9 C4.66 9 5.32 9 6 9 C6 7.68 6 6.36 6 5 C6.66 5 7.32 5 8 5 C8 3.35 8 1.7 8 0 C9.65 0 11.3 0 13 0 C13.33 2.97 13.66 5.94 14 9 C14.66 9 15.32 9 16 9 C16 7.68 16 6.36 16 5 C16.66 5 17.32 5 18 5 C18 3.35 18 1.7 18 0 C18.99 0.33 19.98 0.66 21 1 C20.01 5.62 19.02 10.24 18 15 C16.35 15.33 14.7 15.66 13 16 C13 14.02 13 12.04 13 10 C12.34 10 11.68 10 11 10 C11 8.35 11 6.7 11 5 C10.34 5 9.68 5 9 5 C8.67 8.63 8.34 12.26 8 16 C6.35 16 4.7 16 3 16 C3 14.68 3 13.36 3 12 C2.34 12 1.68 12 1 12 C0.67 8.04 0.34 4.08 0 0 Z " fill="#E6E7E9" transform="translate(476,309)"/>
<path d="M0 0 C9.625 -0.25 9.625 -0.25 13 2 C12.67 4.31 12.34 6.62 12 9 C11.01 9 10.02 9 9 9 C9.7425 9.680625 9.7425 9.680625 10.5 10.375 C12 12 12 12 12 14 C12.66 14 13.32 14 14 14 C14 14.66 14 15.32 14 16 C12.35 16 10.7 16 9 16 C8.71125 15.360625 8.4225 14.72125 8.125 14.0625 C7.17176549 11.84793921 7.17176549 11.84793921 5 11 C4.67 12.65 4.34 14.3 4 16 C2.68 16 1.36 16 0 16 C0 10.72 0 5.44 0 0 Z " fill="#CBCDD0" transform="translate(407,309)"/>
<path d="M0 0 C1.60875 -0.04125 3.2175 -0.0825 4.875 -0.125 C5.77992188 -0.14820313 6.68484375 -0.17140625 7.6171875 -0.1953125 C10 0 10 0 12 2 C11.77256695 4.95662966 11.38764062 6.55033688 9.4375 8.8125 C8.963125 9.204375 8.48875 9.59625 8 10 C8.66 10.33 9.32 10.66 10 11 C10 11.99 10 12.98 10 14 C10.99 14 11.98 14 13 14 C13 14.66 13 15.32 13 16 C10.6875 16.3125 10.6875 16.3125 8 16 C6.3125 13.5625 6.3125 13.5625 5 11 C4.34 10.67 3.68 10.34 3 10 C3 11.98 3 13.96 3 16 C2.01 16 1.02 16 0 16 C0 10.72 0 5.44 0 0 Z " fill="#EEEFF0" transform="translate(179,309)"/>
<path d="M0 0 C1.32 0 2.64 0 4 0 C4 1.98 4 3.96 4 6 C6.31 6 8.62 6 11 6 C11 4.02 11 2.04 11 0 C12.32 0 13.64 0 15 0 C15 5.28 15 10.56 15 16 C13.68 16 12.36 16 11 16 C11 13.69 11 11.38 11 9 C8.69 9 6.38 9 4 9 C4 11.31 4 13.62 4 16 C2.68 16 1.36 16 0 16 C0 10.72 0 5.44 0 0 Z " fill="#DFE1E3" transform="translate(306,309)"/>
<path d="M0 0 C6.8359375 -0.1953125 6.8359375 -0.1953125 9 0 C9.66 0.66 10.32 1.32 11 2 C10.67545999 4.4665041 10.07610128 6.74125565 9.375 9.125 C8.7958595 11.21447673 8.7958595 11.21447673 10 14 C10.99 14 11.98 14 13 14 C13 14.66 13 15.32 13 16 C9.625 15.75 9.625 15.75 6 15 C4.5625 12.9375 4.5625 12.9375 4 11 C3.67 12.65 3.34 14.3 3 16 C2.01 16 1.02 16 0 16 C0 10.72 0 5.44 0 0 Z " fill="#EFF0F1" transform="translate(376,309)"/>
<path d="M0 0 C1.65 0.33 3.3 0.66 5 1 C5.33 2.98 5.66 4.96 6 7 C6.66 7 7.32 7 8 7 C8.66 9.97 9.32 12.94 10 16 C8.68 15.67 7.36 15.34 6 15 C6 14.01 6 13.02 6 12 C3.69 12 1.38 12 -1 12 C-1.33 13.32 -1.66 14.64 -2 16 C-3.32 15.67 -4.64 15.34 -6 15 C-5.34 13.02 -4.68 11.04 -4 9 C-3.34 9 -2.68 9 -2 9 C-1.34 6.03 -0.68 3.06 0 0 Z " fill="#E5E6E8" transform="translate(346,309)"/>
<path d="M0 0 C1.32 0 2.64 0 4 0 C4.99 3.96 5.98 7.92 7 12 C7.66 12 8.32 12 9 12 C9.33 13.32 9.66 14.64 10 16 C8.68 16 7.36 16 6 16 C5.67 14.68 5.34 13.36 5 12 C2.36 12 -0.28 12 -3 12 C-3.33 13.32 -3.66 14.64 -4 16 C-4.66 16 -5.32 16 -6 16 C-5.69078116 14.54096742 -5.37751201 13.08279278 -5.0625 11.625 C-4.88847656 10.81289063 -4.71445313 10.00078125 -4.53515625 9.1640625 C-4 7 -4 7 -3 5 C-2.34 5 -1.68 5 -1 5 C-0.67 3.35 -0.34 1.7 0 0 Z " fill="#EBEBED" transform="translate(150,309)"/>
<path d="M0 0 C2.05078125 0.03255208 4.1015625 0.06510417 6.15234375 0.09765625 C6.48234375 1.41765625 6.81234375 2.73765625 7.15234375 4.09765625 C6.49234375 4.09765625 5.83234375 4.09765625 5.15234375 4.09765625 C5.15234375 3.43765625 5.15234375 2.77765625 5.15234375 2.09765625 C3.50234375 2.09765625 1.85234375 2.09765625 0.15234375 2.09765625 C0.15234375 3.41765625 0.15234375 4.73765625 0.15234375 6.09765625 C1.60640625 6.28328125 1.60640625 6.28328125 3.08984375 6.47265625 C4.60578125 6.78203125 4.60578125 6.78203125 6.15234375 7.09765625 C7.50674043 9.8064496 7.21735826 12.10698893 7.15234375 15.09765625 C3.93783106 16.7049126 0.71621839 16.1551381 -2.84765625 16.09765625 C-3.17765625 14.44765625 -3.50765625 12.79765625 -3.84765625 11.09765625 C-2.52765625 11.42765625 -1.20765625 11.75765625 0.15234375 12.09765625 C0.15234375 12.75765625 0.15234375 13.41765625 0.15234375 14.09765625 C1.14234375 14.09765625 2.13234375 14.09765625 3.15234375 14.09765625 C3.15234375 13.43765625 3.15234375 12.77765625 3.15234375 12.09765625 C3.81234375 12.09765625 4.47234375 12.09765625 5.15234375 12.09765625 C5.15234375 11.43765625 5.15234375 10.77765625 5.15234375 10.09765625 C4.03859375 9.99453125 2.92484375 9.89140625 1.77734375 9.78515625 C-0.01703125 9.44484375 -0.01703125 9.44484375 -1.84765625 9.09765625 C-3.84765625 6.09765625 -3.84765625 6.09765625 -3.53515625 3.47265625 C-2.56922244 0.135794 -2.56922244 0.135794 0 0 Z " fill="#E5E6E8" transform="translate(278.84765625,308.90234375)"/>
<path d="M0 0 C1.98 0 3.96 0 6 0 C7.50934217 3.01868434 7.17510672 5.67297229 7 9 C6.01 10.485 6.01 10.485 5 12 C2.13381787 12.4409511 0.63344953 12.41501866 -1.8125 10.8125 C-3.36678206 8.44017475 -3.22537188 6.77958655 -3 4 C-2.34 4 -1.68 4 -1 4 C-0.67 2.68 -0.34 1.36 0 0 Z " fill="#232A3B" transform="translate(445,311)"/>
<path d="M0 0 C0.99 0 1.98 0 3 0 C2.67 2.97 2.34 5.94 2 9 C1.34 9 0.68 9 0 9 C-0.33 11.31 -0.66 13.62 -1 16 C-2.65 15.67 -4.3 15.34 -6 15 C-6 12.36 -6 9.72 -6 7 C-5.67 7.66 -5.34 8.32 -5 9 C-4.34 9 -3.68 9 -3 9 C-2.01 6.03 -1.02 3.06 0 0 Z " fill="#DBDCDF" transform="translate(122,309)"/>
<path d="M0 0 C0 0.66 0 1.32 0 2 C-9.9 2 -19.8 2 -30 2 C-30 1.34 -30 0.68 -30 0 C-25.56285102 -0.19652332 -21.12527385 -0.38067922 -16.6875 -0.5625 C-14.79354492 -0.64661133 -14.79354492 -0.64661133 -12.86132812 -0.73242188 C-11.65283203 -0.78076172 -10.44433594 -0.82910156 -9.19921875 -0.87890625 C-8.08377686 -0.9260376 -6.96833496 -0.97316895 -5.8190918 -1.02172852 C-3 -1 -3 -1 0 0 Z " fill="#BBBDC3" transform="translate(279,296)"/>
<path d="M0 0 C0.66 0 1.32 0 2 0 C2.33 1.98 2.66 3.96 3 6 C3.66 6 4.32 6 5 6 C7.09350689 9.4019487 7.17942163 12.05272412 7 16 C5.68 16 4.36 16 3 16 C2.49411853 14.08487728 1.99551609 12.16783078 1.5 10.25 C1.2215625 9.18265625 0.943125 8.1153125 0.65625 7.015625 C0 4 0 4 0 0 Z " fill="#F5F6F6" transform="translate(104,309)"/>
<path d="M0 0 C2.31 0 4.62 0 7 0 C7.38133299 1.9914056 7.71325582 3.99279077 8 6 C7 7 7 7 4.4375 7.0625 C3.2309375 7.0315625 3.2309375 7.0315625 2 7 C1.67 9.97 1.34 12.94 1 16 C0.67 16 0.34 16 0 16 C0 10.72 0 5.44 0 0 Z " fill="#BBBEC3" transform="translate(179,309)"/>
<path d="M0 0 C0.99 0.33 1.98 0.66 3 1 C2.01 5.62 1.02 10.24 0 15 C-1.65 15.33 -3.3 15.66 -5 16 C-5 14.02 -5 12.04 -5 10 C-4.01 10.33 -3.02 10.66 -2 11 C-2 9.02 -2 7.04 -2 5 C-1.34 5 -0.68 5 0 5 C0 3.35 0 1.7 0 0 Z " fill="#EBEBED" transform="translate(494,309)"/>
<path d="M0 0 C0.99 0 1.98 0 3 0 C4.17571451 3.67410785 4.07366746 7.16929183 4 11 C4.66 11 5.32 11 6 11 C6 12.65 6 14.3 6 16 C5.01 16 4.02 16 3 16 C3 14.68 3 13.36 3 12 C2.34 12 1.68 12 1 12 C0.67 8.04 0.34 4.08 0 0 Z " fill="#ECEDEE" transform="translate(476,309)"/>
<path d="M0 0 C1.65 0.33 3.3 0.66 5 1 C4.67 3.97 4.34 6.94 4 10 C2.68 10 1.36 10 0 10 C-1.125 8.375 -1.125 8.375 -2 6 C-1.125 2.75 -1.125 2.75 0 0 Z " fill="#E2E3E5" transform="translate(346,309)"/>
<path d="M0 0 C1.32 0 2.64 0 4 0 C4.38922918 1.28745036 4.76098036 2.58019597 5.125 3.875 C5.33382812 4.59429687 5.54265625 5.31359375 5.7578125 6.0546875 C5.83773437 6.69664062 5.91765625 7.33859375 6 8 C4 10 4 10 1.375 10.125 C0.59125 10.08375 -0.1925 10.0425 -1 10 C-1.02689216 8.52093108 -1.04634621 7.04172517 -1.0625 5.5625 C-1.07410156 4.73878906 -1.08570313 3.91507812 -1.09765625 3.06640625 C-1 1 -1 1 0 0 Z " fill="#E8E8EA" transform="translate(150,309)"/>
<path d="M0 0 C0.99 0 1.98 0 3 0 C3 5.28 3 10.56 3 16 C2.01 16 1.02 16 0 16 C0 10.72 0 5.44 0 0 Z " fill="#FFFFFF" transform="translate(251,309)"/>
<path d="M0 0 C0.33 0 0.66 0 1 0 C1 1.98 1 3.96 1 6 C1.99 6.33 2.98 6.66 4 7 C4 7.66 4 8.32 4 9 C5.65 9 7.3 9 9 9 C9 9.66 9 10.32 9 11 C5.46322336 11.32152515 3.6037896 11.4131192 0.625 9.375 C-1.42667508 6.37639795 -1.39588785 4.56299065 -1 1 C-0.67 0.67 -0.34 0.34 0 0 Z " fill="#F7F7F8" transform="translate(441,314)"/>
<path d="M0 0 C0.31263383 6.87794433 0.31263383 6.87794433 -2 10 C-4.125 10.75 -4.125 10.75 -6 11 C-5.33333333 7.66666667 -4.66666667 4.33333333 -4 1 C-1 0 -1 0 0 0 Z " fill="#D8DADC" transform="translate(456,314)"/>
<path d="M0 0 C0.33 0.66 0.66 1.32 1 2 C1.66 2 2.32 2 3 2 C3 2.66 3 3.32 3 4 C3.66 4 4.32 4 5 4 C5 5.65 5 7.3 5 9 C3.35 8.67 1.7 8.34 0 8 C0 5.36 0 2.72 0 0 Z " fill="#F0F0F2" transform="translate(116,316)"/>
<path d="M0 0 C-0.33 3.96 -0.66 7.92 -1 12 C-1.66 12 -2.32 12 -3 12 C-3 10.35 -3 8.7 -3 7 C-3.66 7 -4.32 7 -5 7 C-5 6.34 -5 5.68 -5 5 C-4.34 5 -3.68 5 -3 5 C-3 3.68 -3 2.36 -3 1 C-1 0 -1 0 0 0 Z " fill="#D1D3D6" transform="translate(485,313)"/>
<path d="M0 0 C0.66 0 1.32 0 2 0 C2.33 1.98 2.66 3.96 3 6 C3.66 6 4.32 6 5 6 C5 6.99 5 7.98 5 9 C3.68 9.33 2.36 9.66 1 10 C0.67 6.7 0.34 3.4 0 0 Z " fill="#CECFD3" transform="translate(104,309)"/>
<path d="M0 0 C1.65 0 3.3 0 5 0 C4.67 1.65 4.34 3.3 4 5 C2.68 5 1.36 5 0 5 C0 3.35 0 1.7 0 0 Z " fill="#22293A" transform="translate(411,311)"/>
<path d="M0 0 C1.32 0.33 2.64 0.66 4 1 C4.33 2.65 4.66 4.3 5 6 C4.01 6.495 4.01 6.495 3 7 C2.34 6.67 1.68 6.34 1 6 C0.375 2.9375 0.375 2.9375 0 0 Z " fill="#DDDEE1" transform="translate(186,309)"/>
<path d="M0 0 C2.31 0.33 4.62 0.66 7 1 C7 1.66 7 2.32 7 3 C6.34 3 5.68 3 5 3 C5 3.66 5 4.32 5 5 C4.01 5 3.02 5 2 5 C2 4.34 2 3.68 2 3 C1.34 3 0.68 3 0 3 C0 2.01 0 1.02 0 0 Z " fill="#1E2536" transform="translate(277,318)"/>
<path d="M0 0 C1.65 0 3.3 0 5 0 C5 1.32 5 2.64 5 4 C3.35 4.33 1.7 4.66 0 5 C0 3.35 0 1.7 0 0 Z " fill="#212939" transform="translate(379,311)"/>
<path d="M0 0 C1.65 0 3.3 0 5 0 C5 1.32 5 2.64 5 4 C3.35 4 1.7 4 0 4 C0 2.68 0 1.36 0 0 Z " fill="#171E30" transform="translate(182,311)"/>
<path d="M0 0 C1.32 0 2.64 0 4 0 C4 0.66 4 1.32 4 2 C4.66 2 5.32 2 6 2 C6 2.66 6 3.32 6 4 C4.35 4 2.7 4 1 4 C0.67 2.68 0.34 1.36 0 0 Z " fill="#E0E1E3" transform="translate(415,321)"/>
<path d="M0 0 C0.66 0 1.32 0 2 0 C2.33 1.98 2.66 3.96 3 6 C1.68 6 0.36 6 -1 6 C-0.67 4.02 -0.34 2.04 0 0 Z " fill="#252C3C" transform="translate(347,313)"/>
<path d="M0 0 C0.33 0.99 0.66 1.98 1 3 C1.66 3 2.32 3 3 3 C3 3.99 3 4.98 3 6 C1.35 6 -0.3 6 -2 6 C-1.34 4.02 -0.68 2.04 0 0 Z " fill="#373D4C" transform="translate(151,313)"/>
<path d="M0 0 C1.98 0 3.96 0 6 0 C6 0.99 6 1.98 6 3 C4.02 3 2.04 3 0 3 C0 2.01 0 1.02 0 0 Z " fill="#D8D9DC" transform="translate(376,260)"/>
</svg>
